<?xml version="1.0" encoding="iso-8859-1"?>
<!-- Uploaded to: SVG Repo, www.svgrepo.com, Generator: SVG Repo Mixer Tools -->
<svg fill="#000000" height="800px" width="800px" version="1.1" id="Layer_1" xmlns="http://www.w3.org/2000/svg" xmlns:xlink="http://www.w3.org/1999/xlink" 
	 viewBox="0 0 491.52 491.52" xml:space="preserve">
<g>
	<g>
		<path d="M491.52,61.435c0-11.311-9.169-20.48-20.48-20.48H327.68v-20.47c0-11.311-9.169-20.48-20.48-20.48H184.32
			c-11.311,0-20.48,9.169-20.48,20.48v20.47H20.48C9.169,40.955,0,50.124,0,61.435v245.76c0,0.002,0,0.003,0,0.005s0,0.003,0,0.005
			v81.92c0,11.311,9.169,20.48,20.48,20.48h175.827l-46.948,46.948c-7.998,7.998-7.998,20.965,0,28.963
			c7.998,7.998,20.965,7.998,28.963,0l67.438-67.438l67.438,67.438c7.998,7.998,20.965,7.998,28.963,0
			c7.998-7.998,7.998-20.965,0-28.963l-46.948-46.948H471.04c11.311,0,20.48-9.169,20.48-20.48v-81.92c0-0.002,0-0.003,0-0.005
			s0-0.003,0-0.005V61.435z M90.403,286.715l93.917-93.917l67.438,67.438c7.998,7.998,20.965,7.998,28.963,0l46.958-46.958
			l73.437,73.437H90.403z M204.8,40.965h81.92v20.47v20.48H204.8v-20.48V40.965z M163.84,81.915v20.48v0.01
			c0,11.311,9.169,20.48,20.48,20.48H307.2c11.311,0,20.48-9.169,20.48-20.48v-0.01v-20.48h122.88v196.317L342.162,169.833
			c-7.998-7.998-20.965-7.998-28.963,0l-46.958,46.958l-67.438-67.438c-7.998-7.998-20.965-7.998-28.963,0L40.96,278.232V81.915
			H163.84z M450.56,368.645H245.975c-0.143-0.001-0.286-0.001-0.429,0H40.96v-40.96h409.6V368.645z"/>
	</g>
</g>
</svg>