<?xml version="1.0" standalone="no"?>
<!DOCTYPE svg PUBLIC "-//W3C//DTD SVG 20010904//EN"
 "http://www.w3.org/TR/2001/REC-SVG-20010904/DTD/svg10.dtd">
<svg version="1.0" xmlns="http://www.w3.org/2000/svg"
 width="520.000000pt" height="520.000000pt" viewBox="0 0 520.000000 520.000000"
 preserveAspectRatio="xMidYMid meet">
<metadata>
Created by potrace 1.14, written by Peter Selinger 2001-2017
</metadata>
<g transform="translate(0.000000,520.000000) scale(0.100000,-0.100000)"
fill="#000000" stroke="none">
<path d="M679 5191 c-36 -8 -80 -63 -120 -147 -19 -39 -43 -75 -54 -80 -11 -5
-29 -22 -40 -39 -16 -24 -27 -30 -55 -29 -57 1 -134 -25 -185 -64 -84 -64
-119 -171 -95 -285 9 -47 9 -63 -6 -104 -54 -153 19 -265 162 -248 33 4 65 13
73 19 19 15 19 14 51 -33 50 -76 143 -123 238 -119 23 1 44 -1 47 -4 3 -3 -26
-36 -65 -74 -78 -78 -115 -143 -128 -225 -7 -47 -5 -63 10 -92 42 -82 141
-110 294 -83 l42 7 17 -50 c32 -96 152 -249 236 -298 35 -21 37 -33 5 -33 -16
0 -32 -11 -45 -28 -46 -66 -267 -432 -299 -497 -30 -61 -99 -295 -108 -365 -1
-14 -7 -52 -13 -85 -27 -160 -30 -450 -5 -578 2 -12 6 -39 10 -62 16 -113 53
-231 101 -331 16 -33 31 -80 32 -105 2 -24 3 -294 4 -599 l2 -555 2068 -2
2067 -2 1 62 c1 34 3 304 4 600 1 354 5 545 12 560 41 85 71 156 78 182 5 17
9 35 11 40 10 32 27 104 30 125 2 14 7 45 12 70 19 89 25 168 27 360 2 203
-13 352 -49 490 -10 36 -20 76 -22 90 -9 47 -51 165 -83 229 -40 82 -72 133
-203 318 l-108 151 0 66 c0 36 -5 68 -11 72 -11 6 -83 11 -216 13 l-63 1 0 79
0 79 48 11 c26 7 57 19 69 27 61 39 101 180 70 244 -11 21 -13 38 -7 54 22 58
-4 168 -52 226 -89 107 -318 129 -423 41 -11 -9 -38 -23 -60 -30 -58 -19 -82
-37 -111 -82 -32 -51 -34 -106 -5 -155 17 -29 21 -47 16 -80 -8 -63 -43 -225
-49 -231 -5 -5 -24 34 -108 216 -12 26 -20 64 -20 93 1 89 -30 128 -105 132
-21 1 -54 10 -73 20 -38 21 -135 29 -179 16 -58 -17 -55 -20 -52 50 5 127 -48
299 -128 412 -102 146 -297 288 -476 349 -48 16 -65 27 -69 44 -7 27 -75 118
-120 158 -119 109 -323 123 -461 32 -59 -39 -116 -91 -132 -119 -9 -17 -13
-16 -64 12 -79 44 -142 57 -254 51 -87 -5 -211 -64 -279 -134 -68 -70 -99
-141 -111 -255 -2 -14 -3 -27 -4 -29 -4 -14 -41 54 -54 99 -16 55 -46 92 -83
104 -11 3 -32 28 -49 54 -44 69 -79 84 -192 79 l-92 -5 17 37 c9 20 33 57 55
84 35 43 37 48 22 63 -17 18 -101 26 -146 15z"/>
</g>
</svg>
